<svg width="49" height="38" viewBox="0 0 49 38" fill="none" xmlns="http://www.w3.org/2000/svg">
<path d="M33.5152 28.0493V2.75006C33.5152 1.30017 32.7161 0.5 31.2677 0.5H26.3225C24.874 0.5 24.0747 1.30017 24.0747 2.75006V14.7649C24.0747 15.1033 27.3317 16.6744 27.4168 17.0067C29.8983 26.7119 27.956 34.4791 25.6036 34.8424C29.4498 35.0328 29.8731 36.884 27.0081 35.6191C27.4464 30.4406 29.1565 30.4508 34.0729 35.4285C34.115 35.4715 35.081 37.4997 35.1412 37.4997H46.7525C48.2011 37.4997 49 36.7001 49 35.2499V30.2998C49 28.8499 48.2011 28.0498 46.7525 28.0498L33.5152 28.0493Z" fill="#02A9FF"/>
<path d="M12.9871 0.500452L0 37.5H10.0902L12.288 31.1H23.277L25.4251 37.5H35.4651L22.5277 0.500452H12.9871ZM14.5855 22.9008L17.7323 12.6508L21.179 22.9008H14.5855Z" fill="#FEFEFE"/>
</svg>
