<svg width="45" height="34" viewBox="0 0 45 34" fill="none" xmlns="http://www.w3.org/2000/svg">
<path d="M3.06816 33.8794H10.2272V16.4932L0 8.82275V30.8112C0 32.5089 1.37556 33.8794 3.06816 33.8794Z" fill="#4285F4"/>
<path d="M34.7725 33.8794H41.9315C43.6292 33.8794 44.9997 32.5038 44.9997 30.8112V8.82275L34.7725 16.4932" fill="#34A853"/>
<path d="M34.7725 3.19796V16.4933L44.9997 8.82292V4.73204C44.9997 0.937746 40.6684 -1.22531 37.6361 1.05025" fill="#FBBC04"/>
<path d="M10.2275 16.4931V3.19775L22.5002 12.4022L34.7728 3.19775V16.4931L22.5002 25.6976" fill="#EA4335"/>
<path d="M0 4.73204V8.82292L10.2272 16.4933V3.19796L7.36358 1.05025C4.32611 -1.22531 0 0.937746 0 4.73204Z" fill="#C5221F"/>
</svg>
