<svg width="38" height="38" viewBox="0 0 38 38" fill="none" xmlns="http://www.w3.org/2000/svg">
<g clip-path="url(#clip0_5394_6730)">
<path d="M17.666 18.1499L1.72559 34.8505C1.90458 35.4849 2.22625 36.07 2.66601 36.561C3.10577 37.052 3.65198 37.436 4.26288 37.6836C4.87378 37.9312 5.5332 38.0358 6.19073 37.9894C6.84826 37.9431 7.48649 37.747 8.05663 37.4162L25.9926 27.201L17.666 18.1499Z" fill="#EA4335"/>
<path d="M33.7847 15.3111L26.0283 10.8687L17.2979 18.53L26.0639 27.1773L33.7609 22.7824C34.4428 22.4254 35.014 21.8885 35.4125 21.23C35.8111 20.5715 36.0218 19.8165 36.0218 19.0467C36.0218 18.277 35.8111 17.522 35.4125 16.8635C35.014 16.205 34.4428 15.6681 33.7609 15.3111H33.7847Z" fill="#FBBC04"/>
<path d="M1.72559 3.15967C1.62924 3.51588 1.58129 3.88345 1.58305 4.25245V33.7577C1.58402 34.1265 1.63192 34.4938 1.72559 34.8505L18.2124 18.5775L1.72559 3.15967Z" fill="#4285F4"/>
<path d="M17.7848 19.005L26.0282 10.8685L8.11602 0.605793C7.44216 0.211131 6.67574 0.002107 5.89481 8.49539e-06C4.95166 -0.00186054 4.03377 0.304715 3.28106 0.873003C2.52835 1.44129 1.9821 2.24012 1.72559 3.14771L17.7848 19.005Z" fill="#34A853"/>
</g>
<defs>
<clipPath id="clip0_5394_6730">
<rect width="38" height="38" fill="white"/>
</clipPath>
</defs>
</svg>
